PathFileType	4	(X/Y/Z)	D:\TRACE\spotREDO_2-26-24\spot_Both_Motion_3_8-v60.trc
DataRate	CameraRate	NumFrames	NumMarkers	Units	OrigDataRate	OrigDataStartFrame	OrigNumFrames
100.00	100.00	      21	9	mm	100.00	1751	      7000
Frame#	Time	front left toe			Front right toe			aft left toe			aft right toe			Arm			FL body			FR body			AL Body			AR Body			
		X1	Y1	Z1	X2	Y2	Z2	X3	Y3	Z3	X4	Y4	Z4	X5	Y5	Z5	X6	Y6	Z6	X7	Y7	Z7	X8	Y8	Z8	X9	Y9	Z9	

1751	17.500	-179.76901	19.67194	-435.60855	270.40659	23.93235	-522.72479	-139.91528	16.31976	139.07877	270.02808	26.81745	112.49215	36.93520	704.86359	-757.85529	-83.05236	581.33868	-512.75824	72.04576	584.98541	-522.76837	-32.64510	560.02643	369.39755	114.08469	553.44159	362.54950	
1752	17.510	-179.86432	19.45426	-435.66705	270.44852	23.82788	-522.80847	-139.89824	16.22303	139.02293	269.98349	26.78962	112.31967	36.57505	704.39490	-758.12811	-84.01601	581.11487	-513.82825	71.25990	584.75220	-523.64655	-33.61280	560.68848	368.43951	113.39765	553.91180	361.75369	
1753	17.520	-179.95152	19.08980	-435.70389	270.47183	24.06822	-522.54828	-139.94060	16.25810	138.92828	269.95300	26.68633	112.14690	36.10135	704.27020	-758.30151	-84.60780	580.75079	-514.66254	70.53476	584.18042	-524.39185	-34.21735	561.15607	367.55612	112.84560	554.45581	360.72870	
1754	17.530	-180.13495	18.88481	-435.81836	270.07504	23.75603	-522.79718	-139.90475	16.30488	138.87354	269.96994	26.61515	111.98411	35.51441	704.35596	-758.77985	-85.45934	580.34845	-515.77374	69.86110	583.97784	-525.68103	-34.58220	561.50311	366.63632	112.80040	554.82446	359.85718	
1755	17.540	-180.20828	18.83123	-435.89069	271.21497	24.12019	-522.52222	-139.92461	16.45845	138.81252	270.18976	26.63912	111.83814	35.18524	704.47321	-759.25470	-85.81317	580.02753	-516.39471	69.22640	583.57593	-526.64142	-34.59779	561.91711	365.71994	112.53340	555.30872	358.76013	
1756	17.550	-180.21312	18.75336	-435.95053	271.13907	24.02897	-522.64825	-139.90411	16.57116	138.65215	270.36401	26.66443	111.70115	35.07487	704.55341	-759.41248	-86.31950	579.76282	-517.64655	68.81715	583.49530	-527.66229	-34.51067	562.16919	364.85510	112.42605	555.59607	357.87680	
1757	17.560	-180.24229	18.53867	-436.00519	271.09912	23.96168	-522.74768	-139.91634	16.61135	138.56815	270.43970	26.69544	111.62635	35.12549	704.62244	-759.44757	-86.58365	579.45361	-518.35986	68.45550	583.23706	-528.65790	-34.49917	562.30487	363.85544	112.42075	555.84747	356.77872	
1758	17.570	-180.26015	18.39190	-436.12558	271.14444	24.32547	-522.26178	-139.91496	16.59066	138.50797	270.45639	26.71842	111.55477	35.49071	704.78522	-759.68652	-86.88863	579.19342	-519.17834	68.08415	582.94568	-529.47241	-34.60197	562.47925	363.03967	112.51754	556.02997	355.78030	
1759	17.580	-180.26466	18.39883	-436.17535	271.02393	23.73412	-522.79456	-139.86600	16.69022	138.38252	270.49777	26.66147	111.50924	35.18849	705.22772	-759.67206	-87.23161	578.99957	-520.30524	68.12266	582.67023	-530.01086	-34.75142	562.60590	362.00558	112.67537	556.15198	354.95703	
1760	17.590	-180.22684	18.34077	-436.21899	271.02283	23.61529	-522.86530	-139.84225	16.71793	138.32919	270.53156	26.57042	111.46175	35.53575	705.48932	-759.68896	-87.24751	579.11261	-521.09479	68.00382	582.62128	-531.04932	-34.42588	562.69843	361.21957	112.61563	556.07550	353.96887	
1761	17.600	-180.21379	18.29260	-436.23874	271.02505	23.49035	-523.01782	-139.90251	16.81525	138.33115	270.52283	26.53864	111.30467	35.79416	705.71838	-759.89099	-87.14936	579.13116	-521.79535	67.90527	582.77124	-531.94495	-34.21578	562.62579	360.05292	112.68535	556.23029	353.20117	
1762	17.610	-180.15897	18.30383	-436.33005	271.04422	23.28588	-523.08972	-139.87759	16.81699	138.28142	270.55823	26.34922	111.30467	36.07696	705.84924	-760.10919	-87.09715	579.28009	-523.07324	68.38783	582.99841	-532.96729	-34.54663	562.64703	359.44965	112.81018	555.97388	352.22305	
1763	17.620	-180.05847	18.20907	-436.43958	271.20380	23.16545	-523.05719	-139.85254	16.80319	138.15405	270.58237	26.33177	111.12473	36.08190	705.92133	-760.29816	-86.48837	579.06598	-523.74475	68.59364	582.82147	-533.96057	-34.51655	562.71350	358.51590	112.64986	556.18805	351.53741	
1764	17.630	-180.02371	18.23886	-436.56882	271.15741	23.19045	-523.19342	-139.95731	16.80169	137.96463	270.12210	26.42294	110.91284	35.91651	706.04633	-760.49902	-86.05091	578.99786	-524.75873	69.24698	582.25732	-534.39935	-34.51786	563.12769	357.70013	112.52112	556.53485	350.73221	
1765	17.640	-179.98421	18.18410	-436.64877	271.31693	23.16506	-522.48785	-140.12074	17.08524	137.84492	269.47684	26.17432	110.56829	34.88455	706.66101	-760.90283	-85.19252	578.29620	-525.60742	69.90538	581.73169	-535.63049	-34.82990	564.00293	356.80722	112.41247	557.05682	349.95966	
1766	17.650	-179.96532	18.25103	-436.79614	270.49850	22.02530	-522.95264	-140.28148	17.27127	137.78757	269.63721	26.34795	110.65731	33.89349	707.66821	-760.79004	-84.23369	577.96387	-526.38678	70.74569	581.02802	-536.27325	-34.76677	564.38074	356.08603	112.39706	557.56262	349.45416	
1767	17.660	-179.99144	18.28537	-436.95718	270.40710	21.77476	-523.04376	-140.50278	17.35077	137.65845	270.04358	26.96313	111.26167	32.57621	708.41992	-760.39392	-83.56425	577.78156	-527.06964	71.25911	580.81940	-536.87842	-34.65694	564.47137	355.22690	112.45033	557.55347	348.95551	
1768	17.670	-180.02426	18.26730	-437.10831	271.46991	22.28060	-522.33917	-140.50949	17.26017	137.59094	270.26254	26.98615	111.30045	31.63744	708.82172	-760.25562	-83.83237	578.13068	-528.50421	72.21777	580.74701	-537.34558	-34.47812	564.46533	354.80945	112.74516	557.32288	348.33597	
1769	17.680	-180.03818	18.14363	-437.24652	271.40152	22.22889	-522.41516	-140.49083	17.13618	137.51334	270.35544	27.00923	111.32208	30.83208	709.25220	-760.09326	-82.59303	577.57788	-528.34509	72.47654	580.65668	-537.91040	-33.99317	564.28491	354.38248	113.22102	557.05603	347.80679	
1770	17.690	-180.16974	17.98755	-437.25577	271.41245	22.22855	-522.46008	-140.48837	17.18592	137.52853	270.38412	26.94189	111.21465	30.31588	709.43878	-759.76270	-82.64987	577.57397	-528.60376	72.54977	580.53796	-538.31708	-33.04624	564.10327	353.95389	113.98689	556.94537	347.30963	
1771	17.700	-180.13756	17.89077	-437.12280	271.13776	22.20428	-522.59515	-140.42390	17.31185	137.56604	270.59402	27.07158	111.18311	30.39617	709.39630	-759.57465	-82.66160	577.55707	-528.69525	72.57005	580.79175	-538.90472	-32.02967	564.01056	353.62967	115.63132	556.77966	347.20316	
